HIERARCHY
ROOT Hips
{
  OFFSET -17.8222 7.7 127.125
  CHANNELS 6 Xposition Yposition Zposition Zrotation Xrotation Yrotation
  JOINT Spine
  {
    OFFSET 0 0 0
    CHANNELS 3 Zrotation Xrotation Yrotation
    JOINT Spine1
    {
      OFFSET 19 0 0
      CHANNELS 3 Zrotation Xrotation Yrotation
      JOINT Neck
      {
        OFFSET 22.5 0.6 0
        CHANNELS 3 Zrotation Xrotation Yrotation
        JOINT Head
        {
          OFFSET 14 0.0308777 0
          CHANNELS 3 Zrotation Xrotation Yrotation
          End Site
          {
            OFFSET 17 0 0
          }
        }
      }
      JOINT LeftShoulder
      {
        OFFSET 19.8 3.7 4.3
        CHANNELS 3 Zrotation Xrotation Yrotation
        JOINT LeftArm
        {
          OFFSET 8 0 0
          CHANNELS 3 Zrotation Xrotation Yrotation
          JOINT LeftForeArm
          {
            OFFSET 15.2 0 0
            CHANNELS 3 Zrotation Xrotation Yrotation
            JOINT LeftHand
            {
              OFFSET 17.8 0 0
              CHANNELS 3 Zrotation Xrotation Yrotation
              End Site
              {
                OFFSET 7.2 0 0
              }
            }
          }
        }
      }
      JOINT RightShoulder
      {
        OFFSET 19.8 3.7 -4.3
        CHANNELS 3 Zrotation Xrotation Yrotation
        JOINT RightArm
        {
          OFFSET 8 0 0.151654
          CHANNELS 3 Zrotation Xrotation Yrotation
          JOINT RightForeArm
          {
            OFFSET 15.2 0 0
            CHANNELS 3 Zrotation Xrotation Yrotation
            JOINT RightHand
            {
              OFFSET 17.8 0 0
              CHANNELS 3 Zrotation Xrotation Yrotation
              End Site
              {
                OFFSET 7.2 0 0
              }
            }
          }
        }
      }
    }
  }
  JOINT LeftUpLeg
  {
    OFFSET 5.98425 -7.666 4.78879
    CHANNELS 3 Zrotation Xrotation Yrotation
    JOINT LeftLeg
    {
      OFFSET 16 0 0
      CHANNELS 3 Zrotation Xrotation Yrotation
      JOINT LeftFoot
      {
        OFFSET 18 0 0
        CHANNELS 3 Zrotation Xrotation Yrotation
        End Site
        {
          OFFSET 0 -10.8 0
        }
      }
    }
  }
  JOINT RightUpLeg
  {
    OFFSET 5.98425 -7.66598 -4.78879
    CHANNELS 3 Zrotation Xrotation Yrotation
    JOINT RightLeg
    {
      OFFSET 16 0 0
      CHANNELS 3 Zrotation Xrotation Yrotation
      JOINT RightFoot
      {
        OFFSET 18 0 0
        CHANNELS 3 Zrotation Xrotation Yrotation
        End Site
        {
          OFFSET 0 -10.8 0
        }
      }
    }
  }
  JOINT Tail
  {
    OFFSET 6.83696 -0.722574 0
    CHANNELS 3 Zrotation Xrotation Yrotation
    JOINT Tail1
    {
      OFFSET 12 0 0
      CHANNELS 3 Zrotation Xrotation Yrotation
      End Site
      {
        OFFSET 12 0 0
      }
    }
  }
}
MOTION
Frames:	14
Frame Time:	0.0166667
41.2125 22.0658 -126.591 54.4261 -41.9713 157.556 -151.158 -3.87258 -13.2873 11.2657 -1.03189 18.7137 -8.76826 -10.0999 13.6773 -110.832 75.55 109.778 -110.106 -34.7577 -141.03 118.122 -64.7426 -128.418 -67.0474 16.5813 -4.11644 6.41817 0.29381 -13.5406 77.7501 -26.8436 45.9792 60.5795 -66.4427 -26.3799 -74.2627 -11.7783 -4.58561 -1.8351 2.0937 -9.7678 -129.711 18.0038 -27.4885 137.681 13.9184 -3.25289 -18.6606 -2.66825 -0.966761 -113.496 -12.2448 17.93 136.108 -8.61814 -3.52036 -34.9128 -3.22268 -8.13386 9.35038 77.722 18.6416 62.6276 -79.8184 62.7947 
40.9595 20.6127 -126.941 59.5314 -43.4406 160.111 -149.014 -4.09869 -13.4476 11.2633 -0.901631 18.1421 -8.57105 -10.4966 12.6882 -109.24 75.1289 108.873 -110.188 -34.9566 -140.84 118.175 -65.6022 -128.249 -68.5626 14.7093 -3.00256 6.81593 0.300863 -14.3528 77.8949 -26.5268 45.7226 66.6296 -67.128 -22.8813 -75.9403 -11.9165 -3.95647 -2.33594 1.55402 -6.94682 -128.758 19.646 -27.0776 141.413 15.5204 -3.16862 -19.1984 -2.70784 -0.544231 -114.883 -12.5399 18.2378 140.112 -9.05181 -3.38482 -34.3334 -3.34757 -8.28694 32.3238 76.4413 -2.32648 42.9936 -73.5388 40.5101 
40.6691 19.116 -127.273 64.8089 -44.8324 163.08 -147.005 -4.145 -13.4283 11.4842 -0.631609 17.5105 -8.76955 -10.7166 11.6352 -107.322 74.9196 108.082 -110.322 -35.2843 -140.527 117.346 -66.4298 -128.952 -70.4675 12.5233 -1.74555 6.91779 0.324446 -14.5168 78.2468 -25.8658 45.3808 72.1323 -66.9095 -19.986 -77.7231 -12.438 -3.20035 -2.77649 1.12247 -4.69305 -127.971 21.8964 -26.8533 144.68 17.5099 -3.02651 -19.3731 -2.71304 0.301562 -114.596 -15.4698 18.0244 143.377 -9.74543 -3.45026 -34.743 -3.402 -8.8876 50.1079 74.9769 -18.59 37.5706 -67.6465 32.8304 
40.4028 17.5877 -127.538 70.1726 -46.0159 166.411 -145.192 -4.01058 -13.1088 11.8819 -0.285868 16.7346 -9.27508 -10.7608 10.6269 -105.259 75.2132 107.223 -110.442 -35.7323 -139.942 114.874 -67.164 -130.827 -72.6976 10.0952 -0.597435 6.70285 0.306285 -13.4831 78.4664 -25.4462 45.1374 75.8362 -65.7015 -19.4467 -79.2168 -13.2948 -2.43854 -2.84599 0.993329 -4.17349 -127.249 25.064 -26.7404 147.694 20.3226 -2.82565 -19.5041 -2.66026 1.7296 -113.074 -19.5179 17.9406 145.924 -12.4 -3.78456 -36.451 -3.37085 -9.89487 65.0968 73.6506 -32.5955 35.5367 -62.684 28.9364 
40.2053 16.1174 -127.784 75.5079 -46.9263 170.024 -143.422 -3.75526 -12.5656 12.221 0.0568691 16.0547 -9.92471 -10.6835 9.52072 -102.887 75.629 106.375 -110.47 -36.1146 -139.254 112.725 -67.8829 -134.127 -74.8141 6.28063 2.06282 6.31948 0.302363 -13.3549 78.4507 -25.4734 45.147 79.3037 -64.5178 -19.0794 -80.8047 -13.5031 -2.00617 -2.20896 0.929295 -4.29057 -126.581 29.0207 -26.5174 150.689 24.1984 -2.54487 -19.4593 -2.51762 3.69825 -112.23 -23.3486 17.9645 148.592 -16.2912 -4.15166 -37.1149 -3.3802 -11.2027 78.7458 71.1118 -45.7505 34.3082 -56.6031 25.2418 
40.0559 14.7471 -128.036 80.5632 -47.5621 173.726 -141.743 -3.41264 -12.0888 12.384 0.428591 15.8755 -10.6244 -10.5228 8.16817 -100.306 75.9962 105.558 -110.304 -36.1936 -138.657 111.192 -68.1545 -137.64 -76.1351 1.85981 5.22685 5.99879 0.351877 -14.3493 78.1643 -26.0384 45.5133 82.3809 -64.6408 -17.3617 -82.0832 -13.274 -2.09896 -1.86696 0.809327 -3.91479 -126.403 33.4953 -25.8075 153.399 28.1366 -2.22327 -18.8727 -2.24981 6.17067 -112.039 -27.4886 17.75 151.21 -20.3094 -4.44923 -36.7509 -3.43351 -12.9467 84.8631 66.8192 -49.7052 35.5593 -49.7992 23.5115 
39.9285 13.4425 -128.249 85.4732 -47.9623 177.325 -139.87 -3.11234 -12.0015 12.045 0.826839 16.2611 -11.2522 -10.3912 6.80445 -97.2008 76.6525 104.287 -110.012 -35.9361 -138.382 109.634 -67.951 -140.196 -77.1931 -2.95814 7.30046 6.52944 0.374635 -14.7609 77.7459 -27.0073 46.3982 85.4198 -65.509 -14.8055 -82.9753 -13.037 -2.5162 -1.76646 0.770319 -3.95029 -127.47 38.4588 -23.9441 155.878 30.9176 -1.88308 -16.9438 -1.73661 9.18574 -111.747 -31.9319 17.4868 153.331 -25.0548 -4.78257 -36.6485 -3.4336 -15.155 84.7958 62.315 -44.4082 38.6511 -44.4686 23.6943 
39.7874 12.231 -128.432 90.2679 -47.8853 -179.2 -137.519 -2.93714 -11.8987 10.9373 1.01281 16.7382 -11.6571 -10.4732 5.89133 -92.8642 77.7584 101.709 -109.673 -35.3994 -138.533 108.143 -67.4985 -142.764 -78.2126 -8.93391 8.83593 8.32861 0.361975 -14.3275 77.4384 -27.9446 47.5815 88.787 -66.3982 -12.2932 -83.7668 -12.2995 -2.7933 -0.959426 0.702615 -4.25635 -130.667 42.9333 -19.8458 158.084 31.899 -1.57181 -13.7178 -0.924713 12.4145 -111.051 -36.456 17.1347 154.971 -29.903 -5.14894 -36.9395 -3.34942 -17.561 85.3667 57.9051 -39.2613 39.0112 -40.7672 20.8138 
39.6553 11.1729 -128.635 94.5359 -47.4431 -176.076 -134.996 -2.82075 -11.3408 9.32492 0.896295 16.7243 -12.0491 -10.6588 5.33088 -87.3678 78.8177 98.246 -109.293 -34.7623 -138.774 106.078 -66.5513 -145.562 -79.102 -14.6939 9.66317 11.5544 0.324563 -13.0597 77.3092 -28.5622 48.6005 91.7734 -67.2737 -10.1196 -84.2675 -11.6467 -2.95395 -0.234684 0.654215 -4.45208 -135.337 45.9944 -13.9032 159.895 31.9776 -1.3421 -10.5535 0.0273221 15.4315 -109.836 -41.6064 17.322 156.013 -35.4615 -5.64975 -37.0868 -3.2205 -20.2973 86.9385 53.6856 -35.5794 36.5759 -38.2885 15.3915 
39.5619 10.2827 -128.876 98.1234 -47.2437 -173.443 -132.526 -2.6676 -10.8663 7.31219 0.798632 16.5228 -12.5739 -10.8646 4.72628 -81.2907 79.564 94.5455 -109.069 -34.3263 -139.048 103.948 -64.8638 -147.93 -79.3839 -20.7328 10.1689 16.5479 0.339964 -11.7986 77.1943 -29.0522 49.3291 94.8544 -67.891 -8.2588 -84.4008 -11.5448 -2.8785 0.160939 0.656733 -4.77898 -139.815 47.8245 -7.97096 161.204 31.2383 -1.18657 -8.38836 0.792289 17.676 -109.605 -46.2342 16.667 156.794 -39.8097 -6.08949 -36.8124 -3.16038 -22.9768 88.0224 49.4765 -31.5707 32.2127 -36.4443 9.56202 
39.4911 9.57699 -129.153 101.356 -47.4787 -170.937 -129.674 -2.44543 -10.9143 4.45707 0.909336 16.6993 -13.1552 -11.0638 4.18266 -73.123 80.5742 88.8312 -109.185 -34.3117 -139.405 100.929 -63.3352 -150.15 -79.4163 -23.8969 10.217 20.6304 0.293528 -10.6355 77.0834 -29.4415 49.8149 99.0087 -68.1854 -5.39122 -84.5633 -11.6514 -2.77246 0.367177 0.646312 -4.96303 -143.2 49.3779 -3.01935 161.998 30.3896 -1.04625 -6.65979 1.39268 19.1192 -111.089 -48.474 14.0776 157.595 -41.0061 -6.12579 -36.0992 -3.23513 -24.6816 88.8957 46.0048 -27.9005 27.4368 -35.0974 5.23284 
39.4348 9.03515 -129.432 104.188 -47.7289 -168.673 -126.628 -2.30169 -10.9751 1.09486 0.910718 16.7795 -13.6057 -11.1215 3.86144 -64.1774 81.585 81.8323 -109.519 -34.6086 -139.723 97.6748 -63.2422 -152.064 -79.7198 -23.218 9.78525 21.5969 0.145317 -10.1028 76.9861 -29.637 49.8977 103.495 -68.1897 -1.96799 -84.858 -11.5165 -2.79051 0.521357 0.635599 -4.93495 -145.727 50.475 1.08195 162.542 30.201 -0.944264 -5.28566 1.92809 20.2413 -113.323 -49.7873 11.0077 158.219 -41.5043 -6.07192 -34.8095 -3.45089 -25.9472 89.7538 44.0452 -25.2422 23.8292 -34.5486 3.51029 
39.3716 8.65048 -129.697 106.504 -47.9365 -166.863 -123.892 -2.36055 -10.842 -2.04201 0.689903 16.3764 -14.0096 -11.1302 3.86834 -57.3937 82.1587 76.4916 -109.84 -35.0141 -139.771 97.5819 -65.4444 -152.115 -79.5906 -21.8966 9.47016 20.6306 0.0404668 -10.7176 76.9288 -29.5362 49.4499 106.655 -68.0473 0.404192 -84.8579 -11.5229 -2.6946 0.584046 0.673411 -5.00523 -147.131 50.9397 3.6163 162.894 30.4687 -0.914836 -4.36093 2.35887 21.0639 -116.05 -50.9908 8.14514 158.654 -41.681 -6.02272 -32.6807 -3.86554 -26.8215 90.1771 42.694 -22.4449 22.2041 -34.3628 3.85874 
39.2761 8.41012 -129.975 108.683 -48.168 -165.197 -121.338 -2.65107 -10.9083 -4.76201 0.397942 16.0371 -14.8426 -10.9921 3.93841 -53.5971 82.3949 74.5587 -110.084 -35.4718 -139.505 100.621 -69.3375 -149.915 -79.0504 -18.8021 9.15428 17.7799 -0.055367 -11.5482 76.9644 -29.2292 48.8685 108.329 -67.9623 1.62571 -84.7586 -11.442 -2.51422 0.84244 0.70883 -5.18973 -146.728 50.874 3.86751 162.885 30.6906 -0.937452 -3.38139 2.58962 20.9424 -118.285 -51.2799 6.1555 158.813 -41.2524 -5.94599 -29.997 -4.40323 -26.756 90.5016 41.659 -19.7267 22.302 -34.1415 4.22837 
